<svg height="180" viewBox="0 0 153 180" width="153" xmlns="http://www.w3.org/2000/svg"><g fill="none"><path d="m114.961893 43-96.961893.1928031v117.7851549c0 7.743673 6.2045357 14.022042 13.8571429 14.022042h69.2857141c7.652607 0 13.857143-6.278369 13.857143-14.022042v-117.9078478z" fill="#d9d9d9"/><path d="m115 163v-118.9292824l-.038107-.0707176-96.961893.1944733v118.8055267z" fill="#fec652"/><path d="m151 74.0239044v59.9521916c0 7.744701-6.2685 14.023904-14 14.023904h-21v-14.023904h21v-59.9521916h-21v-14.0239044h21c7.7315 0 14 6.2792032 14 14.0239044z" fill="#d9d9d9"/><path d="m121.633946 28.3460371c2.633312 11.9371317-9.421442 21.487756-20.744683 15.6049022v29.8419456c0 3.9021091-3.0969961 7.0690383-6.9206616 7.0690383-3.8236656 0-6.9206617-3.1669292-6.9206617-7.0690383v-14.1380768c0-4.881171.1730166-13.8871259-15.2254556-13.8871259-1.2491794 0-2.4429936.5160398-3.3080763 1.4314803-3.1454407 3.322448-7.5539021 5.3866072-12.4364289 5.3866072-4.7233516 0-9.0037808-1.933382-12.1249992-5.0685005-1.1176869-1.1204426-2.6229308-1.749587-4.2631276-1.749587-1.3183861 0-2.5225812.7669907-3.1004564 1.9757962-3.3426796 6.991279-10.2875636 11.8406393-18.4020393 11.9113297v28.1983941c-.1730166 3.9798686-3.2700127 7.1467978-7.0936782 7.1467978-3.82366557 0-7.0936782-3.1669292-7.0936782-7.0690384 0-4.6256252 0-37.5086711 0-42.4142303 0-16.8137077 14.5368498-30.1989319 31.4059625-27.9898574 4.7233516-8.59948522 13.7617357-14.5268739 24.1323472-14.5268739 8.200984 0 15.5680284 3.74305582 20.637413 9.5325983 2.0900398-1.3501864 4.5676367-2.110108 7.2182501-2.110108 6.0382773 0 11.1734082 3.9480579 13.0627492 9.4548388 2.972424-2.035883 6.761486-2.9265819 10.758168-2.0500211 5.079766 1.109839 9.280607 5.344193 10.419056 10.5187291z" fill="#ffe5cb"/><g fill="#fff"><path d="m87.5 159c-1.932 0-3.5 1.568-3.5 3.5s1.568 3.5 3.5 3.5 3.5-1.568 3.5-3.5-1.568-3.5-3.5-3.5z"/><path d="m37.5 71c-1.93305 0-3.5 1.5701327-3.5 3.507109v66.985782c0 1.936976 1.56695 3.507109 3.5 3.507109s3.5-1.570133 3.5-3.507109v-66.985782c0-1.9369763-1.56695-3.507109-3.5-3.507109z"/><path d="m65.5 71c-1.93305 0-3.5 1.5701327-3.5 3.507109v66.985782c0 1.936976 1.56695 3.507109 3.5 3.507109s3.5-1.570133 3.5-3.507109v-66.985782c0-1.9369763-1.56695-3.507109-3.5-3.507109z"/><path d="m31.5714286 180h69.3877554c9.565102 0 17.346938-7.885547 17.346938-17.578125v-10.546875h17.346939c9.565102 0 17.346939-7.885547 17.346939-17.578125v-60.1171875c0-9.6925781-7.781837-17.578125-17.346939-17.578125h-17.346939v-10.6379297c5.438266-4.1312109 8.02296-11.1139453 6.490184-18.0084375-1.433898-6.4652344-6.700428-11.7414844-13.103184-13.1291015-3.403816-.7400391-6.831918-.478125-9.955408.7252734-3.132163-5.0037891-8.6325303-8.1685547-14.6560813-8.1685547-2.2703674 0-4.4890409.44613281-6.5404898 1.30464844-5.8070613-5.55082031-13.4629592-8.68746094-21.3880817-8.68746094-10.483102 0-20.2598367 5.41160156-26.0308163 14.2660547-18.1344898-1.0167188-33.1222449 13.5622266-33.1222449 31.5390234v42.1875c0 5.8155469 4.74681633 10.546875 10.5816327 10.546875 1.2798571 0 2.5062857-.2358984 3.6428571-.6655078v64.5479297c0 9.692578 7.7818367 17.578125 17.3469388 17.578125zm69.3877554-7.03125h-69.3877554c-4.5226939 0-8.3792653-2.939414-9.8114286-7.03125h51.2740816c1.9161429 0 3.4693878-1.573945 3.4693878-3.515625s-1.5532449-3.515625-3.4693878-3.515625h-51.8708163v-70.9910156-24.8076563c7.7932857-1.1921484 14.5415918-6.1657031 18.0893878-13.536914.7237142 0 1.3613877.2538281 1.8418979.7316015 3.915551 3.9016407 9.0967347 6.0500391 14.5891225 6.0500391 5.6925714 0 11.0066326-2.2833984 14.9652041-6.431836.2116326-.2221875.5110408-.3498046.8205102-.3498046 5.4007959 0 8.9347142 1.1689453 10.5042653 3.473789 1.2937347 1.9001953 1.2926938 4.5404297 1.291653 6.6621094v14.2238672c0 4.5829687 2.9007551 8.4909375 6.9387755 9.9421875v57.2062498c0 1.94168 1.5532449 3.515625 3.4693878 3.515625 1.9161428 0 3.4693877-1.573945 3.4693877-3.515625v-57.2066014c4.0380209-1.45125 6.9387759-5.3588672 6.9387759-9.9421875v-24.7725c2.430306.4914844 4.910571.4946485 7.285714.002461v109.7462109h-10.585102c-1.916143 0-3.4693879 1.573945-3.4693879 3.515625s1.5532449 3.480469 3.4693879 3.480469h9.988367c-1.432163 4.091836-5.288734 7.066406-9.811428 7.066406zm17.346938-95.2734375h13.877551v53.0859375h-13.877551zm17.346939-14.0625c5.739061 0 10.408163 4.7313281 10.408163 10.546875v60.1171875c0 5.815547-4.669102 10.546875-10.408163 10.546875h-17.346939v-7.03125h17.346939c1.916143 0 3.469388-1.573945 3.469388-3.515625v-60.1171875c0-1.9416797-1.553245-3.515625-3.469388-3.515625h-17.346939v-7.03125zm-125.0714283 27.8753906c-1.97442862 0-3.64285719-1.6101562-3.64285719-3.515625v-42.1875c0-13.5689062 10.95702039-24.5573437 24.42691839-24.5573437 1.0467143 0 2.0989796.0675 3.150551.2042578 1.4033673.1824609 2.7748163-.5171484 3.4669592-1.7669531 4.3214694-7.8050391 12.4332449-12.6537891 21.1698571-12.6537891 6.8451021 0 13.4445715 3.0287109 18.1056939 8.3098828 1.1296327 1.2803906 3.0072653 1.5461719 4.4404694.6275391 1.586551-1.0170703 3.4478775-1.5546094 5.3824082-1.5546094 4.4165306 0 8.364 2.8339453 9.8228775 7.0512891.3549184 1.0265625 1.1591225 1.8291797 2.1777347 2.1730078 1.0182651.3438281 2.1367961.1905469 3.0284281-.4155469 2.364735-1.6066406 5.250572-2.1469922 8.128429-1.5212109 3.746939.8121093 6.949184 4.0176562 7.787388 7.7973046 1.974775 8.881875-7.009898 16.1676563-15.841572 11.6152735-1.07551-.5544141-2.3577956-.5027344-3.386816.1367578-1.0286734.6391406-1.6555918 1.7739844-1.6555918 2.9967187v29.6824219c0 1.9385157-1.5563673 3.515625-3.4693878 3.515625-1.9130204 0-3.4693877-1.5771093-3.4693877-3.515625v-14.2214062c.0010408-2.7689063.0027755-6.9535547-2.5191225-10.6576172-2.9416938-4.3210547-8.3973061-6.5119922-16.2152244-6.5119922-2.1822449 0-4.3006531.9101953-5.8108776 2.4957422-2.6374286 2.7639844-6.1800204 4.2858984-9.9748367 4.2858984-3.6612449 0-7.1146735-1.431914-9.7264286-4.0348828-1.7808367-1.7715234-4.1618776-2.7467578-6.7045918-2.7467578-2.629449 0-5.0732858 1.5458203-6.2261633 3.9382031-2.9080408 6.0342188-8.794898 9.818086-15.362449 9.8750391-1.9043469.0165234-3.4398979 1.5855469-3.4398979 3.515625v27.9580078c-.1221225 2.0703516-1.7107551 3.6822656-3.6425102 3.6822656z"/></g></g></svg>