<?xml version="1.0" encoding="UTF-8"?>
<svg width="155px" height="180px" viewBox="0 0 155 180" version="1.1" xmlns="http://www.w3.org/2000/svg" xmlns:xlink="http://www.w3.org/1999/xlink">
    <!-- Generator: Sketch 64 (93537) - https://sketch.com -->
    <title>beer_button</title>
    <desc>Created with Sketch.</desc>
    <g id="Page-1" stroke="none" stroke-width="1" fill="none" fill-rule="evenodd">
        <g id="Artboard-Copy-3" transform="translate(-17.000000, 0.000000)" fill="#FFFFFF" fill-rule="nonzero">
            <g id="beer_button" transform="translate(17.000000, 0.000000)">
                <path d="M93.7241354,60.8022594 C87.5296412,60.8022594 81.8585306,58.5532859 77.4631673,54.8264847 C72.4438807,58.579944 66.2296635,60.8022594 59.4997595,60.8022594 C52.7693744,60.8022594 46.5551572,58.579944 41.5363517,54.8264847 C37.1405073,58.5532859 31.4698777,60.8022594 25.2749025,60.8022594 C24.336853,60.8022594 23.4122729,60.7465198 22.5011622,60.6461884 L22.5011622,104 L18.474765,104 C8.27119151,104 0,95.6657113 0,85.3853819 L0,34.8115897 L0.012988378,34.8115897 C0.291035877,20.9896117 11.490385,9.86882541 25.2749025,9.86882541 C28.9010652,9.86882541 32.3458717,10.6438488 35.4630824,12.0295849 C40.973522,4.72139032 49.6877615,0 59.4997595,0 C69.3117575,0 78.025997,4.72139032 83.5364366,12.0295849 C86.6541283,10.6443335 90.0984538,9.86882541 93.7246165,9.86882541 C107.683755,9.86882541 119,21.2707334 119,35.3355424 L119,60.2594037 L93.7241354,60.8022594 Z" id="Path"></path>
                <path d="M94.5956782,9.58599191 C90.9510172,9.58599191 87.4891211,10.3383654 84.355525,11.6822925 C80.332763,6.53229612 74.6095139,2.70835799 68,1 L68,58.0078075 C71.7515156,57.037716 75.2196973,55.3914288 78.2517574,53.2024922 C82.6695429,56.818117 88.3695838,59 94.5956782,59 L120,58.4733386 L120,34.292996 C120,20.6477627 108.626027,9.58599191 94.5956782,9.58599191 Z" id="Path"></path>
                <path d="M133.758271,153 L99,153 L99,59 L133.758271,59 C145.470928,59 155,70.2989335 155,84.1870153 L155,127.812503 C155,141.700585 145.470522,153 133.758271,153 Z M113,137 L134.212537,137 C138.506593,137 142,132.844243 142,127.735555 L142,84.2639652 C142,79.1557571 138.506593,75 134.212537,75 L113,75 L113,137 Z" id="Shape"></path>
                <path d="M75,46 L75,167.042112 C75,174.19871 71.6499199,180 67.5175288,180 L22.4821951,180 C18.349804,180 15,174.19871 15,167.042112 L15,46 L75,46 Z M47,60 C40.9247024,60 36,64.9544643 36,71.0653916 L36,71.0653916 L36,152.934608 C36,159.046022 40.9251856,164 47,164 C53.0748144,164 57.9995168,159.045536 58,152.934608 L58,152.934608 L58,71.0653916 C58,64.9539782 53.0748144,60 47,60 Z" id="Combined-Shape"></path>
                <path d="M120,46 L120,167.042112 C120,174.19871 114.132666,180 106.894596,180 L106.894596,180 L68,180 L68,46 L120,46 Z M87,60 C80.9247024,60 76,64.9544643 76,71.0653916 L76,71.0653916 L76,152.934608 C76,159.046022 80.9251856,164 87,164 C93.0748144,164 97.9995168,159.045536 98,152.934608 L98,152.934608 L98,71.0653916 C98,64.9539782 93.0748144,60 87,60 Z" id="Combined-Shape"></path>
            </g>
        </g>
    </g>
</svg>