<?xml version="1.0" encoding="UTF-8"?>
<svg width="181px" height="180px" viewBox="0 0 181 180" version="1.1" xmlns="http://www.w3.org/2000/svg" xmlns:xlink="http://www.w3.org/1999/xlink">
    <title>Beer Plus One</title>
    <g id="Beer-Plus-One" stroke="none" stroke-width="1" fill="none" fill-rule="evenodd" transform="translate(1.000000, 0.000000)">
        <path d="M137,167.042112 C137,174.096473 131.299107,179.833972 124.203947,179.996461 L123.894596,180 L39.7316016,180 C35.4614641,180 32,174.19871 32,167.042112 L31.9991959,103.671116 C23.4572084,102.032807 17,94.4687181 17,85.3853819 L17,34.8115897 L17.0129884,34.8115897 C17.2910359,20.9896117 28.490385,9.86882541 42.2749025,9.86882541 C45.9010652,9.86882541 49.3458717,10.6438488 52.4630824,12.0295849 C57.973522,4.72139032 66.6877615,0 76.4997595,0 C86.3117575,0 95.025997,4.72139032 100.536437,12.0295849 C103.654128,10.6443335 107.098454,9.86882541 110.724616,9.86882541 C124.683755,9.86882541 136,21.2707334 136,35.3355424 L136,46 L137,46 L137,49 L32,49 L32,158 L137,158 L137,167.042112 Z M137,59 L153.413487,59 C163.662062,59 172,70.2989335 172,84.1870153 L172,127.812503 C172,141.700585 163.661706,153 153.413487,153 L137,153 L137,137 L153.28667,137 C156.988442,137 160,132.844243 160,127.735555 L160,84.2639652 C160,79.1557571 156.988442,75 153.28667,75 L137,75 L137,59 Z" id="Combined-Shape" fill="#FFFFFF" fill-rule="nonzero"></path>
        <text id="+1" font-family="Montserrat-Bold, Montserrat" font-size="107" font-weight="bold" fill="#FFFFFF">
            <tspan x="28.4815" y="145">+1</tspan>
        </text>
    </g>
</svg>