<?xml version="1.0" encoding="UTF-8"?>
<svg width="153px" height="180px" viewBox="0 0 153 180" version="1.1" xmlns="http://www.w3.org/2000/svg" xmlns:xlink="http://www.w3.org/1999/xlink">
    <!-- Generator: Sketch 64 (93537) - https://sketch.com -->
    <title>beer_icon</title>
    <desc>Created with Sketch.</desc>
    <g id="Page-1" stroke="none" stroke-width="1" fill="none" fill-rule="evenodd">
        <g id="apple" transform="translate(-14.000000, 0.000000)" fill-rule="nonzero">
            <g id="beer_icon" transform="translate(14.000000, 0.000000)">
                <path d="M114.961893,43 L18,43.1928031 L18,160.977958 C18,168.721631 24.2045357,175 31.8571429,175 L101.142857,175 C108.795464,175 115,168.721631 115,160.977958 L115,43.0701102 L114.961893,43 Z" id="Path" fill="#D9D9D9"></path>
                <polygon id="Path" fill="#FEC652" points="115 163 115 44.0707176 114.961893 44 18 44.1944733 18 163"></polygon>
                <path d="M151,74.0239044 L151,133.976096 C151,141.720797 144.7315,148 137,148 L116,148 L116,133.976096 L137,133.976096 L137,74.0239044 L116,74.0239044 L116,60 L137,60 C144.7315,60 151,66.2792032 151,74.0239044 Z" id="Path" fill="#D9D9D9"></path>
                <path d="M121.633946,28.3460371 C124.267258,40.2831688 112.212504,49.8337931 100.889263,43.9509393 L100.889263,73.7928849 C100.889263,77.694994 97.7922669,80.8619232 93.9686014,80.8619232 C90.1449358,80.8619232 87.0479397,77.694994 87.0479397,73.7928849 L87.0479397,59.6548081 C87.0479397,54.7736371 87.2209563,45.7676822 71.8224841,45.7676822 C70.5733047,45.7676822 69.3794905,46.283722 68.5144078,47.1991625 C65.3689671,50.5216105 60.9605057,52.5857697 56.0779789,52.5857697 C51.3546273,52.5857697 47.0741981,50.6523877 43.9529797,47.5172692 C42.8352928,46.3968266 41.3300489,45.7676822 39.6898521,45.7676822 C38.371466,45.7676822 37.1672709,46.5346729 36.5893957,47.7434784 C33.2467161,54.7347574 26.3018321,59.5841177 18.1873564,59.6548081 L18.1873564,87.8532022 C18.0143398,91.8330708 14.9173437,95 11.0936782,95 C7.27001263,95 4,91.8330708 4,87.9309616 C4,83.3053364 4,50.4222905 4,45.5167313 C4,28.7030236 18.5368498,15.3177994 35.4059625,17.5268739 C40.1293141,8.92738868 49.1676982,3 59.5383097,3 C67.7392937,3 75.1063381,6.74305582 80.1757227,12.5325983 C82.2657625,11.1824119 84.7433594,10.4224903 87.3939728,10.4224903 C93.4322501,10.4224903 98.567381,14.3705482 100.456722,19.8773291 C103.429146,17.8414461 107.218208,16.9507472 111.21489,17.827308 C116.294656,18.937147 120.495497,23.171501 121.633946,28.3460371 Z" id="Path" fill="#FFE5CB"></path>
                <path d="M87.5,159 C85.568,159 84,160.568 84,162.5 C84,164.432 85.568,166 87.5,166 C89.432,166 91,164.432 91,162.5 C91,160.568 89.432,159 87.5,159 Z" id="Path" fill="#999999"></path>
                <path d="M37.5,71 C35.56695,71 34,72.5701327 34,74.507109 L34,141.492891 C34,143.429867 35.56695,145 37.5,145 C39.43305,145 41,143.429867 41,141.492891 L41,74.507109 C41,72.5701327 39.43305,71 37.5,71 Z" id="Path" fill="#999999"></path>
                <path d="M65.5,71 C63.56695,71 62,72.5701327 62,74.507109 L62,141.492891 C62,143.429867 63.56695,145 65.5,145 C67.43305,145 69,143.429867 69,141.492891 L69,74.507109 C69,72.5701327 67.43305,71 65.5,71 Z" id="Path" fill="#999999"></path>
                <path d="M31.5714286,180 L100.959184,180 C110.524286,180 118.306122,172.114453 118.306122,162.421875 L118.306122,151.875 L135.653061,151.875 C145.218163,151.875 153,143.989453 153,134.296875 L153,74.1796875 C153,64.4871094 145.218163,56.6015625 135.653061,56.6015625 L118.306122,56.6015625 L118.306122,45.9636328 C123.744388,41.8324219 126.329082,34.8496875 124.796306,27.9551953 C123.362408,21.4899609 118.095878,16.2137109 111.693122,14.8260938 C108.289306,14.0860547 104.861204,14.3479688 101.737714,15.5513672 C98.605551,10.5475781 93.1051837,7.3828125 87.0816327,7.3828125 C84.8112653,7.3828125 82.5925918,7.82894531 80.5411429,8.68746094 C74.7340816,3.13664063 67.0781837,0 59.1530612,0 C48.6699592,0 38.8932245,5.41160156 33.1222449,14.2660547 C14.9877551,13.2493359 0,27.8282813 0,45.8050781 L0,87.9925781 C0,93.808125 4.74681633,98.5394531 10.5816327,98.5394531 C11.8614898,98.5394531 13.0879184,98.3035547 14.2244898,97.8739453 L14.2244898,162.421875 M100.959184,172.96875 L31.5714286,172.96875 C27.0487347,172.96875 23.1921633,170.029336 21.76,165.9375 L73.0340816,165.9375 C74.9502245,165.9375 76.5034694,164.363555 76.5034694,162.421875 C76.5034694,160.480195 74.9502245,158.90625 73.0340816,158.90625 L21.1632653,158.90625 L21.1632653,87.9152344 L21.1632653,63.1075781 C28.956551,61.9154297 35.7048571,56.941875 39.2526531,49.5706641 C39.9763673,49.5706641 40.6140408,49.8244922 41.094551,50.3022656 C45.010102,54.2039063 50.1912857,56.3523047 55.6836735,56.3523047 C61.3762449,56.3523047 66.6903061,54.0689063 70.6488776,49.9204687 C70.8605102,49.6982812 71.1599184,49.5706641 71.4693878,49.5706641 C76.8701837,49.5706641 80.404102,50.7396094 81.9736531,53.0444531 C83.2673878,54.9446484 83.2663469,57.5848828 83.2653061,59.7065625 L83.2653061,73.9304297 C83.2653061,78.5133984 86.1660612,82.4213672 90.2040816,83.8726172 L90.2040816,141.078867 C90.2040816,143.020547 91.7573265,144.594492 93.6734694,144.594492 C95.5896122,144.594492 97.1428571,143.020547 97.1428571,141.078867 L97.1428571,83.8722656 C101.180878,82.4210156 104.081633,78.5133984 104.081633,73.9300781 L104.081633,49.1575781 C106.511939,49.6490625 108.992204,49.6522266 111.367347,49.1600391 L111.367347,158.90625 L100.782245,158.90625 C98.866102,158.90625 97.3128571,160.480195 97.3128571,162.421875 C97.3128571,164.363555 98.866102,165.902344 100.782245,165.902344 L110.770612,165.902344 C109.338449,169.99418 105.481878,172.96875 100.959184,172.96875 Z M118.306122,77.6953125 L132.183673,77.6953125 L132.183673,130.78125 L118.306122,130.78125 L118.306122,77.6953125 Z M135.653061,63.6328125 C141.392122,63.6328125 146.061224,68.3641406 146.061224,74.1796875 L146.061224,134.296875 C146.061224,140.112422 141.392122,144.84375 135.653061,144.84375 L118.306122,144.84375 L118.306122,137.8125 L135.653061,137.8125 C137.569204,137.8125 139.122449,136.238555 139.122449,134.296875 L139.122449,74.1796875 C139.122449,72.2380078 137.569204,70.6640625 135.653061,70.6640625 L118.306122,70.6640625 L118.306122,63.6328125 L135.653061,63.6328125 Z M10.5816327,91.5082031 C8.60720408,91.5082031 6.93877551,89.8980469 6.93877551,87.9925781 L6.93877551,45.8050781 C6.93877551,32.2361719 17.8957959,21.2477344 31.3656939,21.2477344 C32.4124082,21.2477344 33.4646735,21.3152344 34.5162449,21.4519922 C35.9196122,21.6344531 37.2910612,20.9348438 37.9832041,19.6850391 C42.3046735,11.88 50.416449,7.03125 59.1530612,7.03125 C65.9981633,7.03125 72.5976327,10.0599609 77.2587551,15.3411328 C78.3883878,16.6215234 80.2660204,16.8873047 81.6992245,15.9686719 C83.2857755,14.9516016 85.147102,14.4140625 87.0816327,14.4140625 C91.4981633,14.4140625 95.4456327,17.2480078 96.9045102,21.4653516 C97.2594286,22.4919141 98.0636327,23.2945313 99.0822449,23.6383594 C100.10051,23.9821875 101.219041,23.8289063 102.110673,23.2228125 C104.475408,21.6161719 107.361245,21.0758203 110.239102,21.7016016 C113.986041,22.5137109 117.188286,25.7192578 118.02649,29.4989062 C120.001265,38.3807812 111.016592,45.6665625 102.184918,41.1141797 C101.109408,40.5597656 99.8271224,40.6114453 98.798102,41.2509375 C97.7694286,41.8900781 97.1425102,43.0249219 97.1425102,44.2476562 L97.1425102,73.9300781 C97.1425102,75.8685938 95.5861429,77.4457031 93.6731224,77.4457031 C91.760102,77.4457031 90.2037347,75.8685938 90.2037347,73.9300781 L90.2037347,59.7086719 C90.2047755,56.9397656 90.2065102,52.7551172 87.6846122,49.0510547 C84.7429184,44.73 79.2873061,42.5390625 71.4693878,42.5390625 C69.2871429,42.5390625 67.1687347,43.4492578 65.6585102,45.0348047 C63.0210816,47.7987891 59.4784898,49.3207031 55.6836735,49.3207031 C52.0224286,49.3207031 48.569,47.8887891 45.9572449,45.2858203 C44.1764082,43.5142969 41.7953673,42.5390625 39.2526531,42.5390625 C36.6232041,42.5390625 34.1793673,44.0848828 33.0264898,46.4772656 C30.118449,52.5114844 24.2315918,56.2953516 17.6640408,56.3523047 C15.7596939,56.3688281 14.2241429,57.9378516 14.2241429,59.8679297 L14.2241429,87.8259375 C14.1020204,89.8962891 12.5133878,91.5082031 10.5816327,91.5082031 Z" id="Shape" fill="#999999"></path>
            </g>
        </g>
    </g>
</svg>