<?xml version="1.0" encoding="UTF-8"?>
<svg width="180px" height="180px" viewBox="0 0 180 180" version="1.1" xmlns="http://www.w3.org/2000/svg" xmlns:xlink="http://www.w3.org/1999/xlink">
    <!-- Generator: Sketch 64 (93537) - https://sketch.com -->
    <title>Next Round Icon</title>
    <desc>Created with Sketch.</desc>
    <g id="Next-Round-Icon" stroke="none" stroke-width="1" fill="none" fill-rule="evenodd">
        <g id="beer_button-copy" transform="translate(50.449914, 108.311319) scale(-1, 1) rotate(-10.000000) translate(-50.449914, -108.311319) translate(7.949914, 58.811319)" fill="#FFFFFF" fill-rule="nonzero">
            <path d="M51.1938555,33.3243153 C47.8103082,33.3243153 44.7126427,32.0917048 42.311814,30.049131 C39.570187,32.1063155 36.1758666,33.3243153 32.4998686,33.3243153 C28.8236079,33.3243153 25.4292875,32.1063155 22.6879232,30.049131 C20.2868317,32.0917048 17.189429,33.3243153 13.805619,33.3243153 C13.293239,33.3243153 12.7882163,33.2937656 12.2905508,33.2387763 L12.2905508,57 L10.0912582,57 C4.51787772,57 0,52.4321687 0,46.7977574 L0,19.079429 L0.00709449217,19.079429 C0.158969176,11.5039218 6.27626074,5.40887547 13.805619,5.40887547 C15.7862961,5.40887547 17.6679131,5.83364792 19.3705912,6.59313787 C22.3804952,2.58768508 27.1403739,0 32.4998686,0 C37.8593633,0 42.619242,2.58768508 45.629146,6.59313787 C47.3320869,5.83391357 49.2134411,5.40887547 51.1941182,5.40887547 C58.818858,5.40887547 65,11.6579981 65,19.3665954 L65,33.0267886 L51.1938555,33.3243153 Z" id="Path"></path>
            <path d="M51.8322052,5.73709898 C49.7996058,5.73709898 47.8689329,6.15220158 46.1213505,6.8936786 C43.8778871,4.05230131 40.6860751,1.94254234 37,1 L37,32.4525834 C39.0921914,31.9173605 41.0263696,31.0090642 42.7173262,29.801375 C45.1810912,31.7962025 48.3599602,33 51.8322052,33 L66,32.7094282 L66,19.3685495 C66,11.840145 59.656823,5.73709898 51.8322052,5.73709898 Z" id="Path"></path>
            <path d="M73.2411855,84 L54,84 L54,32 L73.2411855,32 C79.7249779,32 85,38.2504738 85,45.9332425 L85,70.0664911 C85,77.7492598 79.7247531,84 73.2411855,84 Z M61.75,75.1489362 L73.4926545,75.1489362 C75.8697209,75.1489362 77.8035714,72.8500067 77.8035714,70.023924 L77.8035714,45.9758105 C77.8035714,43.1499933 75.8697209,40.8510638 73.4926545,40.8510638 L61.75,40.8510638 L61.75,75.1489362 Z" id="Shape"></path>
            <path d="M41,25 L41,91.8441516 C41,95.7963025 39.157456,99 36.8846409,99 L12.1152073,99 C9.8423922,99 8,95.7963025 8,91.8441516 L8,25 L41,25 Z M25.6,32.7313433 C22.2585863,32.7313433 19.55,35.4673907 19.55,38.8420819 L19.55,38.8420819 L19.55,84.0534405 C19.55,87.4284001 22.2588521,90.1641791 25.6,90.1641791 C28.9411479,90.1641791 31.6497342,87.4281317 31.65,84.0534405 L31.65,84.0534405 L31.65,38.8420819 C31.65,35.4671223 28.9411479,32.7313433 25.6,32.7313433 Z" id="Combined-Shape"></path>
            <path d="M66,25 L66,91.8441516 C66,95.7963025 62.7278332,99 58.6912169,99 L58.6912169,99 L37,99 L37,25 L66,25 Z M47.5961538,32.7313433 C44.2080071,32.7313433 41.4615385,35.4673907 41.4615385,38.8420819 L41.4615385,38.8420819 L41.4615385,84.0534405 C41.4615385,87.4284001 44.2082766,90.1641791 47.5961538,90.1641791 C50.9840311,90.1641791 53.7304997,87.4281317 53.7307692,84.0534405 L53.7307692,84.0534405 L53.7307692,38.8420819 C53.7307692,35.4671223 50.9840311,32.7313433 47.5961538,32.7313433 Z" id="Combined-Shape"></path>
        </g>
        <g id="beer_button-copy-2" transform="translate(130.449914, 108.311319) rotate(-10.000000) translate(-130.449914, -108.311319) translate(87.949914, 58.811319)" fill="#FFFFFF" fill-rule="nonzero">
            <path d="M51.1938555,33.3243153 C47.8103082,33.3243153 44.7126427,32.0917048 42.311814,30.049131 C39.570187,32.1063155 36.1758666,33.3243153 32.4998686,33.3243153 C28.8236079,33.3243153 25.4292875,32.1063155 22.6879232,30.049131 C20.2868317,32.0917048 17.189429,33.3243153 13.805619,33.3243153 C13.293239,33.3243153 12.7882163,33.2937656 12.2905508,33.2387763 L12.2905508,57 L10.0912582,57 C4.51787772,57 0,52.4321687 0,46.7977574 L0,19.079429 L0.00709449217,19.079429 C0.158969176,11.5039218 6.27626074,5.40887547 13.805619,5.40887547 C15.7862961,5.40887547 17.6679131,5.83364792 19.3705912,6.59313787 C22.3804952,2.58768508 27.1403739,0 32.4998686,0 C37.8593633,0 42.619242,2.58768508 45.629146,6.59313787 C47.3320869,5.83391357 49.2134411,5.40887547 51.1941182,5.40887547 C58.818858,5.40887547 65,11.6579981 65,19.3665954 L65,33.0267886 L51.1938555,33.3243153 Z" id="Path"></path>
            <path d="M51.8322052,5.73709898 C49.7996058,5.73709898 47.8689329,6.15220158 46.1213505,6.8936786 C43.8778871,4.05230131 40.6860751,1.94254234 37,1 L37,32.4525834 C39.0921914,31.9173605 41.0263696,31.0090642 42.7173262,29.801375 C45.1810912,31.7962025 48.3599602,33 51.8322052,33 L66,32.7094282 L66,19.3685495 C66,11.840145 59.656823,5.73709898 51.8322052,5.73709898 Z" id="Path"></path>
            <path d="M73.2411855,84 L54,84 L54,32 L73.2411855,32 C79.7249779,32 85,38.2504738 85,45.9332425 L85,70.0664911 C85,77.7492598 79.7247531,84 73.2411855,84 Z M61.75,75.1489362 L73.4926545,75.1489362 C75.8697209,75.1489362 77.8035714,72.8500067 77.8035714,70.023924 L77.8035714,45.9758105 C77.8035714,43.1499933 75.8697209,40.8510638 73.4926545,40.8510638 L61.75,40.8510638 L61.75,75.1489362 Z" id="Shape"></path>
            <path d="M41,25 L41,91.8441516 C41,95.7963025 39.157456,99 36.8846409,99 L12.1152073,99 C9.8423922,99 8,95.7963025 8,91.8441516 L8,25 L41,25 Z M25.6,32.7313433 C22.2585863,32.7313433 19.55,35.4673907 19.55,38.8420819 L19.55,38.8420819 L19.55,84.0534405 C19.55,87.4284001 22.2588521,90.1641791 25.6,90.1641791 C28.9411479,90.1641791 31.6497342,87.4281317 31.65,84.0534405 L31.65,84.0534405 L31.65,38.8420819 C31.65,35.4671223 28.9411479,32.7313433 25.6,32.7313433 Z" id="Combined-Shape"></path>
            <path d="M66,25 L66,91.8441516 C66,95.7963025 62.7278332,99 58.6912169,99 L58.6912169,99 L37,99 L37,25 L66,25 Z M47.5961538,32.7313433 C44.2080071,32.7313433 41.4615385,35.4673907 41.4615385,38.8420819 L41.4615385,38.8420819 L41.4615385,84.0534405 C41.4615385,87.4284001 44.2082766,90.1641791 47.5961538,90.1641791 C50.9840311,90.1641791 53.7304997,87.4281317 53.7307692,84.0534405 L53.7307692,84.0534405 L53.7307692,38.8420819 C53.7307692,35.4671223 50.9840311,32.7313433 47.5961538,32.7313433 Z" id="Combined-Shape"></path>
        </g>
        <g id="splash" transform="translate(67.000000, 25.000000)" fill="#FFFFFF" fill-rule="nonzero">
            <path d="M22.9996484,0.0003515625 C21.0583203,0.0003515625 19.4840234,1.57429688 19.4840234,3.51597656 L19.4840234,12.6857813 C19.4840234,14.6274609 21.0583203,16.2014063 22.9996484,16.2014063 C24.9409766,16.2014063 26.5152734,14.6274609 26.5152734,12.6857813 L26.5152734,3.51597656 C26.5152734,1.57429688 24.9413281,0.0003515625 22.9996484,0.0003515625 Z" id="Path"></path>
            <path d="M5.55335937,20.7991406 C6.20796875,21.915 7.38253906,22.5365625 8.58945312,22.5365625 C9.19378906,22.5365625 9.80585937,22.3808203 10.3648437,22.0528125 C12.0396875,21.0705469 12.6007813,18.9165234 11.6185156,17.2416797 L6.9603125,9.30023437 C5.97769531,7.62539062 3.82402344,7.06359375 2.14882813,8.0465625 C0.473984375,9.02882812 -0.087109375,11.1828516 0.89515625,12.8576953 L5.55335937,20.7991406 Z" id="Path"></path>
            <path d="M35.6351563,22.0528125 C36.1941406,22.3808203 36.8062109,22.5365625 37.4105469,22.5365625 C38.6171094,22.5365625 39.7916797,21.915 40.4466406,20.7991406 L45.1048438,12.8576953 C46.0871094,11.1828516 45.5256641,9.02882813 43.8511719,8.0465625 C42.1759766,7.06394531 40.0223047,7.62539063 39.0396875,9.30023438 L34.3814844,17.2416797 C33.3988672,18.9161719 33.9603125,21.0705469 35.6351563,22.0528125 Z" id="Path"></path>
        </g>
    </g>
</svg>