<svg enable-background="new 0 0 285 285" viewBox="0 0 285 285" xmlns="http://www.w3.org/2000/svg"><path d="m88.4 87.996c2.525-2.146 2.832-5.933.687-8.458-6.286-7.394-9.747-16.819-9.747-26.538 0-22.607 18.393-41 41-41s41 18.393 41 41c0 9.729-3.467 19.161-9.761 26.557-2.148 2.523-1.843 6.311.681 8.458 1.129.961 2.511 1.431 3.886 1.431 1.698 0 3.386-.717 4.572-2.111 8.14-9.565 12.622-21.759 12.622-34.335 0-29.225-23.775-53-53-53s-53 23.775-53 53c0 12.563 4.476 24.748 12.602 34.31 2.147 2.525 5.931 2.831 8.458.686z"/><path d="m120.186 41.201c13.228 0 23.812 8.105 27.313 19.879.761-2.562 1.176-5.271 1.176-8.08 0-15.649-12.685-28.335-28.335-28.335-15.648 0-28.334 12.686-28.334 28.335 0 2.623.364 5.16 1.031 7.571 3.654-11.495 14.115-19.37 27.149-19.37z"/><path d="m234.21 169.856c-3.769-22.452-19.597-26.04-27.034-26.462-2.342-.133-4.516-1.32-5.801-3.282-5.388-8.225-12.609-10.4-18.742-10.4-4.405 0-8.249 1.122-10.449 1.932-.275.102-.559.15-.837.15-.87 0-1.701-.47-2.163-1.262-5.472-9.387-13.252-11.809-19.822-11.809-3.824 0-7.237.82-9.548 1.564-.241.077-.764.114-1.001.114-1.256 0-2.637-1.03-2.637-2.376v-48.272c0-11.035-8.224-16.552-16.5-16.552s-16.5 5.517-16.5 16.552v84.912c0 4.989-3.811 8.074-7.918 8.074-2.495 0-4.899-1.138-6.552-3.678l-7.937-12.281c-3.508-5.788-8.576-8.188-13.625-8.189-11.412-.001-22.574 12.258-14.644 25.344l62.491 119.692c.408.782 1.225 1.373 2.108 1.373h87.757c1.253 0 2.289-1.075 2.365-2.325l2.196-35.816c.025-.413.162-.84.39-1.186 21.784-32.994 28.021-54.259 24.403-75.817z"/></svg>