<svg id="Layer_1" enable-background="new 0 0 511.263 511.263" height="512" viewBox="0 0 511.263 511.263" width="512" xmlns="http://www.w3.org/2000/svg"><g><path d="m11.208 166.544 6.61 50.762h307l6.609-50.762z"/><path d="m230.797 55.046c-18.604 22.653-30.818 50.744-33.837 81.498h115.335z"/><path d="m56.094 511.263h230.448l6.61-50.762h-243.668z"/><path d="m45.578 430.501h251.48l23.853-183.195h-299.187z"/><path d="m333.507 115.331v-115.331c-30.753 3.021-58.845 15.229-81.498 33.833z"/><path d="m466.219 55.046-81.499 81.498h115.335c-3.019-30.754-15.232-58.845-33.836-81.498z"/><path d="m363.507 0v115.331l81.499-81.499c-22.653-18.603-50.746-30.811-81.499-33.832z"/></g></svg>